<?xml version="1.0" standalone="no"?>
<!DOCTYPE svg PUBLIC "-//W3C//DTD SVG 20010904//EN"
 "http://www.w3.org/TR/2001/REC-SVG-20010904/DTD/svg10.dtd">
<svg version="1.0" xmlns="http://www.w3.org/2000/svg"
 width="512.000000pt" height="512.000000pt" viewBox="0 0 512.000000 512.000000"
 preserveAspectRatio="xMidYMid meet">

<g transform="translate(0.000000,512.000000) scale(0.100000,-0.100000)"
fill="#000000" stroke="none">
<path d="M2904 5066 c-70 -12 -193 -70 -291 -137 -23 -16 -44 -29 -48 -29 -4
0 -25 13 -48 29 -23 15 -67 41 -97 56 -30 15 -63 35 -74 44 -10 9 -32 17 -50
17 -17 1 -68 7 -113 15 -152 24 -280 -17 -378 -123 -98 -105 -139 -226 -138
-403 2 -280 147 -555 397 -749 192 -150 473 -272 522 -227 5 5 50 23 99 41
472 171 765 534 766 950 1 180 -45 305 -150 411 -50 49 -81 71 -124 88 -73 27
-180 34 -273 17z m-755 -82 l32 -7 -53 -31 c-29 -18 -75 -45 -103 -60 l-50
-28 65 66 c35 36 67 66 71 66 4 0 21 -3 38 -6z m800 -8 c-2 -1 -65 -38 -139
-81 -74 -43 -150 -87 -169 -98 l-34 -21 19 33 c26 44 35 51 144 115 75 44 104
55 139 56 24 0 42 -2 40 -4z m151 -30 c0 -5 -189 -116 -198 -116 -4 0 34 27
83 60 79 52 115 70 115 56z m-786 -22 c9 -3 16 -10 16 -14 0 -4 -47 -35 -105
-68 -58 -34 -105 -59 -105 -57 0 6 164 145 172 145 3 0 13 -3 22 -6z m897 -53
c13 -11 22 -21 19 -23 -8 -7 -504 -291 -515 -295 -14 -6 4 8 245 181 118 85
218 155 221 155 4 1 17 -8 30 -18z m-669 -113 c22 -2 -1 -19 -134 -96 -89 -51
-162 -91 -164 -89 -8 7 252 204 261 197 6 -5 22 -10 37 -12z m768 -17 c0 -3
-71 -46 -157 -96 -341 -195 -343 -195 -63 0 175 122 196 134 208 118 6 -9 12
-19 12 -22z m-1437 -53 c-21 -18 -48 -41 -60 -52 -23 -19 -23 -19 -23 1 0 15
16 30 53 51 68 40 77 40 30 0z m1477 -89 c0 -24 -21 -39 -222 -155 -295 -169
-295 -169 -283 -156 6 7 119 90 250 186 158 115 243 170 247 163 4 -7 8 -24 8
-38z m-1310 -82 c-56 -51 -219 -175 -224 -170 -3 4 -6 16 -6 27 0 16 27 36
118 88 120 70 137 78 112 55z m1297 -103 c-3 -20 -7 -38 -9 -39 -3 -2 -383
-222 -403 -233 -27 -14 22 24 203 160 108 81 201 147 206 148 5 0 6 -16 3 -36z
m-942 17 c-26 -23 -456 -321 -463 -321 -5 0 -14 10 -19 23 -11 23 -2 29 235
165 234 135 269 153 247 133z m-385 -96 c0 -11 -149 -104 -154 -96 -4 5 29 30
71 55 85 49 83 48 83 41z m439 -39 c-20 -17 -413 -288 -423 -292 -15 -6 -42
23 -32 34 12 11 440 260 450 261 5 1 7 -1 5 -3z m231 -20 c0 -3 -121 -93 -270
-201 l-270 -197 -30 22 c-16 12 -30 24 -30 28 0 5 582 347 598 351 1 1 2 -1 2
-3z m575 -85 c-8 -17 -30 -41 -47 -54 -38 -28 -173 -107 -184 -107 -6 0 237
190 244 190 1 0 -4 -13 -13 -29z m-485 -55 c-42 -38 -481 -356 -492 -356 -19
1 -64 37 -56 46 8 8 551 323 558 323 2 1 -2 -5 -10 -13z m35 -165 c-8 -6 -307
-233 -360 -272 -5 -4 -25 1 -44 10 l-34 18 219 126 c210 122 239 137 219 118z
m-165 -265 c0 -11 -84 -65 -93 -59 -5 3 13 18 39 34 52 30 54 31 54 25z"/>
<path d="M1500 3363 c-231 -36 -414 -101 -600 -211 -392 -231 -699 -650 -815
-1112 -135 -540 -7 -1062 354 -1442 237 -249 566 -438 882 -507 375 -81 771
-33 1116 135 l112 55 98 -49 c425 -214 911 -228 1363 -40 578 239 984 728
1075 1293 19 117 19 335 0 455 -63 389 -213 684 -479 937 -442 423 -1105 578
-1691 396 -44 -13 -137 -52 -206 -85 l-125 -59 -93 46 c-177 89 -363 150 -551
180 -87 14 -371 19 -440 8z m2119 -83 c339 -58 629 -183 851 -368 618 -515
683 -1500 142 -2165 -177 -217 -403 -365 -722 -471 -431 -143 -826 -134 -1184
29 l-70 32 48 32 c25 18 74 55 107 83 l61 50 81 -31 c172 -65 296 -85 494 -79
167 6 298 33 451 94 430 173 765 557 858 987 25 112 29 324 10 435 -33 187
-114 397 -211 542 -188 281 -543 494 -920 551 -110 17 -332 14 -446 -6 -125
-21 -284 -75 -389 -132 -235 -127 -454 -350 -569 -581 -234 -467 -147 -1089
203 -1460 l67 -71 -53 -39 c-29 -21 -72 -50 -96 -63 l-43 -24 -50 53 c-73 79
-177 243 -231 363 -228 512 -186 1114 110 1564 179 274 476 509 772 613 74 25
220 62 300 75 79 13 321 6 429 -13z m-1706 -10 c187 -28 456 -122 550 -192 18
-13 17 -16 -20 -40 -21 -14 -67 -48 -101 -76 l-64 -51 -81 30 c-316 117 -622
130 -891 40 -191 -65 -329 -153 -487 -310 -401 -399 -542 -997 -354 -1496 71
-190 221 -384 398 -515 206 -154 510 -264 787 -286 149 -11 372 27 528 92 415
172 733 562 837 1025 25 112 31 355 11 471 -41 244 -139 439 -312 626 -42 46
-75 84 -73 86 26 24 164 116 174 116 21 0 131 -126 198 -224 323 -480 328
-1109 12 -1667 -114 -201 -307 -409 -500 -538 -223 -149 -406 -214 -685 -241
-193 -20 -506 34 -726 125 -447 184 -786 598 -913 1115 -31 128 -41 225 -41
399 0 317 77 578 246 838 61 95 245 288 348 367 200 154 426 252 691 301 86
16 371 19 468 5z m1761 -346 c550 -96 916 -589 916 -1233 0 -239 -40 -423
-135 -617 -233 -479 -704 -689 -1274 -568 -75 16 -243 62 -249 69 -3 2 19 30
48 62 126 141 259 376 319 564 62 195 75 284 75 509 1 175 -2 221 -21 316 -58
281 -178 536 -351 743 -34 40 -62 77 -62 81 0 13 229 70 335 83 83 11 317 6
399 -9z m-1729 -23 c88 -21 236 -61 244 -67 2 -2 -21 -32 -51 -66 -184 -211
-309 -463 -368 -743 -27 -130 -37 -376 -21 -511 41 -330 173 -639 377 -880 29
-34 50 -65 46 -68 -18 -11 -221 -58 -310 -71 -246 -37 -520 -1 -707 92 -213
107 -395 299 -500 526 -205 444 -156 1032 115 1396 163 219 377 354 645 407
106 21 412 12 530 -15z m773 -520 c300 -459 261 -1093 -92 -1487 l-58 -65 -30
28 c-50 48 -137 169 -184 257 -94 177 -141 348 -150 551 -16 324 82 621 281
856 l60 70 59 -62 c32 -34 84 -101 114 -148z"/>
</g>
</svg>
