<?xml version="1.0" standalone="no"?>
<!DOCTYPE svg PUBLIC "-//W3C//DTD SVG 20010904//EN"
 "http://www.w3.org/TR/2001/REC-SVG-20010904/DTD/svg10.dtd">
<svg version="1.0" xmlns="http://www.w3.org/2000/svg"
 width="320.000000pt" height="320.000000pt" viewBox="0 0 320.000000 320.000000"
 preserveAspectRatio="xMidYMid meet">

<g transform="translate(0.000000,320.000000) scale(0.100000,-0.100000)"
fill="#000000" stroke="none">
<path d="M1850 2433 c0 -11 51 -73 60 -73 10 0 40 52 40 70 0 5 -22 10 -50 10
-27 0 -50 -3 -50 -7z"/>
<path d="M2010 2433 c0 -11 39 -73 45 -73 8 0 64 64 65 73 0 4 -25 7 -55 7
-30 0 -55 -3 -55 -7z"/>
<path d="M1791 2387 c-11 -19 -21 -37 -21 -41 0 -3 25 -6 55 -6 30 0 55 4 55
8 0 4 -15 23 -34 41 l-33 32 -22 -34z"/>
<path d="M1961 2387 c-11 -19 -21 -37 -21 -41 0 -3 18 -6 40 -6 45 0 48 7 21
50 l-19 31 -21 -34z"/>
<path d="M2116 2386 c-14 -19 -26 -37 -26 -40 0 -3 25 -6 55 -6 30 0 55 2 55
5 0 9 -45 75 -51 75 -4 0 -18 -15 -33 -34z"/>
<path d="M1770 2309 c0 -16 174 -291 178 -281 3 9 -27 194 -43 267 -4 18 -13
21 -70 22 -36 0 -65 -3 -65 -8z"/>
<path d="M1930 2312 c0 -6 45 -263 51 -292 1 -3 13 60 28 140 16 80 26 148 24
153 -6 10 -103 9 -103 -1z"/>
<path d="M2065 2307 c-9 -23 -55 -290 -52 -294 4 -3 187 291 187 300 0 3 -29
5 -65 6 -44 0 -67 -3 -70 -12z"/>
<path d="M1110 2210 c-193 -27 -372 -142 -468 -303 -209 -347 -42 -803 341
-937 44 -15 96 -23 177 -27 98 -5 127 -2 195 16 118 33 189 75 280 166 135
134 189 263 190 450 0 123 -22 215 -73 302 -45 77 -53 60 -11 -24 51 -100 77
-220 58 -265 -13 -31 -13 -31 -25 53 -13 89 -40 172 -75 228 l-21 34 -35 -36
-36 -35 28 -69 c58 -140 44 -321 -35 -441 -251 -386 -832 -258 -890 196 -48
376 355 663 691 491 l41 -20 33 38 c18 21 31 41 28 46 -9 15 -101 56 -164 73
-83 22 -215 22 -298 0 -224 -60 -382 -231 -430 -465 -14 -64 -19 -78 -24 -60
-28 103 49 279 174 400 123 119 259 172 434 172 112 -1 202 -23 292 -74 58
-32 63 -33 63 -19 0 14 -157 86 -215 99 -75 15 -163 20 -225 11z m-429 -771
c19 -25 48 -71 64 -103 98 -190 333 -300 547 -255 124 26 267 127 326 229 15
26 47 69 71 96 l43 49 -7 -35 c-31 -146 -183 -309 -344 -368 -81 -30 -214 -40
-303 -23 -138 27 -275 119 -354 238 -37 55 -83 171 -84 207 0 23 -2 24 41 -35z"/>
<path d="M1736 2165 c-179 -73 -330 -252 -377 -445 -22 -90 -16 -242 13 -332
25 -76 72 -168 86 -168 4 0 19 11 34 25 l26 24 -28 53 c-25 47 -64 167 -56
175 5 5 96 -131 96 -143 0 -7 8 -18 17 -25 19 -16 19 -18 -21 96 -42 117 -33
253 25 371 53 106 201 226 307 249 17 3 32 9 32 11 0 16 -56 84 -69 84 -33 0
-177 -79 -228 -124 -63 -56 -132 -159 -163 -241 -12 -33 -25 -98 -29 -145 -7
-78 -8 -83 -19 -57 -16 37 -15 78 3 155 44 185 197 358 379 427 25 10 46 22
46 26 0 13 -9 11 -74 -16z"/>
<path d="M2150 2183 c0 -6 17 -15 39 -21 127 -39 280 -171 345 -300 43 -84 68
-179 60 -221 -9 -44 -24 -49 -24 -9 0 52 -27 146 -63 218 -62 126 -238 269
-351 287 -28 4 -33 0 -53 -36 -13 -22 -23 -42 -23 -44 0 -2 19 -10 43 -17 77
-23 141 -62 202 -124 107 -110 160 -269 137 -410 -48 -283 -315 -466 -590
-401 -34 8 -80 24 -102 35 -44 22 -50 24 -50 11 0 -13 112 -60 170 -71 208
-39 409 49 530 233 51 78 110 152 110 138 0 -24 -45 -130 -76 -178 -150 -237
-480 -324 -723 -192 l-55 29 -29 -29 -30 -29 44 -28 c118 -75 326 -106 469
-70 212 53 381 205 457 414 34 91 43 258 19 352 -38 148 -122 278 -238 365
-86 65 -218 124 -218 98z"/>
</g>
</svg>
